<svg width="15" height="16" viewBox="0 0 15 16" fill="none" xmlns="http://www.w3.org/2000/svg">
<path d="M1 4.11111H14M5.875 7.22222V11.8889M9.125 7.22222V11.8889M1.8125 4.11111L2.625 13.4444C2.625 13.857 2.7962 14.2527 3.10095 14.5444C3.4057 14.8361 3.81902 15 4.25 15H10.75C11.181 15 11.5943 14.8361 11.899 14.5444C12.2038 14.2527 12.375 13.857 12.375 13.4444L13.1875 4.11111M5.0625 4.11111V1.77778C5.0625 1.5715 5.1481 1.37367 5.30048 1.22781C5.45285 1.08194 5.65951 1 5.875 1H9.125C9.34049 1 9.54715 1.08194 9.69952 1.22781C9.8519 1.37367 9.9375 1.5715 9.9375 1.77778V4.11111" stroke="#8B8B8B" stroke-width="2" stroke-linecap="round" stroke-linejoin="round"/>
</svg>
